<?xml version="1.0" encoding="iso-8859-1"?>
<!-- Generator: Adobe Illustrator 16.0.0, SVG Export Plug-In . SVG Version: 6.00 Build 0)  -->
<!DOCTYPE svg PUBLIC "-//W3C//DTD SVG 1.1//EN" "http://www.w3.org/Graphics/SVG/1.1/DTD/svg11.dtd">
<svg version="1.1" id="Capa_1" xmlns="http://www.w3.org/2000/svg" xmlns:xlink="http://www.w3.org/1999/xlink" x="0px" y="0px"
	 width="70.018px" height="70.018px" viewBox="0 0 70.018 70.018" style="enable-background:new 0 0 70.018 70.018;"
	 xml:space="preserve">
	 <style type="text/css" media="screen">
     		 <![CDATA[
     		 svg {
     			 fill: #7A7777;
     			 pointer-events: none;
     		 }
     		 ]]>
     	 </style>
<g>
	<path d="M54.913,56.972l6.409,6.41c-4.167,0.132-8.034-0.301-11.528-1.293L54.913,56.972z M52.857,54.915l-6.002-5.996l-7.577,7.58
		c2.174,1.896,4.681,3.421,7.454,4.541L52.857,54.915z M44.801,46.861l-5.997-5.999l-6.287,6.288
		c1.168,2.727,2.742,5.179,4.688,7.312L44.801,46.861z M37.219,58.553l-5.671,5.671c2.224,1.969,4.756,3.463,7.548,4.452l5.42-5.422
		C41.833,62.045,39.386,60.465,37.219,58.553z M31.417,44.127l5.327-5.323l-6.787-6.788C29.814,36.422,30.305,40.485,31.417,44.127z
		 M54.452,37.209c-2.133-1.946-4.588-3.52-7.312-4.688l-6.286,6.286l5.997,5.997L54.452,37.209z M38.797,36.755l5.324-5.327
		c-3.753-1.144-7.933-1.639-12.216-1.565L38.797,36.755z M30.324,49.342l-5.279,5.281c0.989,2.789,2.485,5.321,4.453,7.543
		l5.655-5.652C33.199,54.4,31.581,51.993,30.324,49.342z M27.068,34.855c-3.007,4.938-4.05,10.838-2.913,16.543l4.961-4.962
		C27.871,42.942,27.184,39.052,27.068,34.855z M56.963,54.919l6.408,6.41c0.135-4.168-0.299-8.034-1.294-11.526L56.963,54.919z
		 M69.557,42.331l-5.152,5.152c1.214,3.627,1.848,7.64,1.894,11.953C69.573,54.383,70.743,48.284,69.557,42.331z M34.848,27.077
		c4.198,0.122,8.084,0.807,11.582,2.046l4.961-4.961C45.679,23.027,39.784,24.068,34.848,27.077z M42.321,69.566
		c5.956,1.187,12.053,0.019,17.105-3.262c-4.315-0.048-8.326-0.682-11.953-1.891L42.321,69.566z M56.507,35.157l5.65-5.653
		c-2.222-1.967-4.754-3.464-7.543-4.453l-5.281,5.279C51.983,31.59,54.391,33.208,56.507,35.157z M61.03,46.742
		c-1.117-2.773-2.646-5.285-4.541-7.454l-7.578,7.577l5.997,6L61.03,46.742z M63.243,44.53l5.422-5.423
		c-0.992-2.792-2.484-5.324-4.452-7.545l-5.669,5.67C60.458,39.395,62.036,41.84,63.243,44.53z M12.686,34.633
		c-1.114-1.117-1.11-2.92,0.009-4.039l17.899-17.898c1.117-1.12,2.92-1.125,4.036-0.008l3.619,3.595
		c0.997,0.996,2.597,1.007,3.613,0.051c0.078-0.051,0.153-0.109,0.23-0.161c2.872-2.434,7.628-6.479,7.749-6.604
		c1.011-1.007,1.018-2.637,0-3.653c-0.109-0.112-0.399-0.334-0.399-0.334C46.582,3.254,41.708-0.04,37.035,0
		C31.396,0.057,22.151,6.503,14.33,14.323C6.505,22.148,0.063,31.385,0.01,37.022c-0.049,4.684,3.251,9.556,5.58,12.412
		c0,0,0.218,0.294,0.327,0.405c1.019,1.018,2.656,1.002,3.662-0.007c0.118-0.116,4.167-4.872,6.599-7.741
		c0.051-0.078,0.107-0.148,0.161-0.23c0.956-1.021,0.949-2.619-0.049-3.62L12.686,34.633z"/>
</g>
<g>
</g>
<g>
</g>
<g>
</g>
<g>
</g>
<g>
</g>
<g>
</g>
<g>
</g>
<g>
</g>
<g>
</g>
<g>
</g>
<g>
</g>
<g>
</g>
<g>
</g>
<g>
</g>
<g>
</g>
</svg>
