<?xml version="1.0" encoding="iso-8859-1"?>
<!-- Generator: Adobe Illustrator 18.1.1, SVG Export Plug-In . SVG Version: 6.00 Build 0)  -->
<svg version="1.1" id="Capa_1" xmlns="http://www.w3.org/2000/svg" xmlns:xlink="http://www.w3.org/1999/xlink" x="0px" y="0px"
	 width="525.153px" height="525.153px" viewBox="0 0 525.153 525.153" style="enable-background:new 0 0 525.153 525.153;" xml:space="preserve">
	 	<style type="text/css" media="screen">
     		 <![CDATA[
     		 svg {
     			 fill: #7A7777;
     			 pointer-events: none;
     		 }

     		 ]]>
     	 </style>
<g>
	<g>
		<path d="M0,140.621v243.911h525.153V140.621H0z M375.922,175.062h22.975h22.954v45.907h-22.954h-22.975V175.062z M387.409,243.922
			v45.907h-22.975H341.48v-45.907h22.954C364.434,243.922,387.409,243.922,387.409,243.922z M307.039,175.062h22.975h22.975v45.907
			h-22.975h-22.975V175.062z M318.549,243.922v45.907h-22.975H272.62v-45.907h22.954
			C295.573,243.922,318.549,243.922,318.549,243.922z M238.2,175.062h22.954h22.932v45.907h-22.932H238.2V175.062z M249.644,243.922
			v45.907h-22.932h-22.975v-45.907h22.975C226.713,243.922,249.644,243.922,249.644,243.922z M169.296,175.062h22.975h22.954v45.907
			h-22.954h-22.975C169.296,220.969,169.296,175.062,169.296,175.062z M180.806,243.922v45.907H157.83h-22.954v-45.907h22.954
			C157.83,243.922,180.806,243.922,180.806,243.922z M100.457,175.062h22.932h22.975v45.907h-22.975h-22.932V175.062z
			 M31.553,220.969v-45.907h22.954h22.975v45.907H54.506H31.553z M66.016,289.829v-45.907H88.97h22.975v45.907H88.97
			C88.97,289.829,66.016,289.829,66.016,289.829z M433.316,361.578h-34.419h-34.441h-34.419h-34.441h-34.419h-34.419h-34.485H157.83
			h-34.441H88.948v-45.907h34.419h34.441h34.441h34.441h34.419h34.419h34.441h34.419h34.441h34.419v45.907H433.316z
			 M456.292,289.829h-22.975h-22.954v-45.907h22.954h22.975V289.829z M490.711,220.969h-22.954h-22.975v-45.907h22.975h22.954
			V220.969z"/>
	</g>
</g>
<g>
</g>
<g>
</g>
<g>
</g>
<g>
</g>
<g>
</g>
<g>
</g>
<g>
</g>
<g>
</g>
<g>
</g>
<g>
</g>
<g>
</g>
<g>
</g>
<g>
</g>
<g>
</g>
<g>
</g>
</svg>
