<svg xmlns="http://www.w3.org/2000/svg" width="302.459" height="302.46" fill="gray" opacity=".8" pointer-events="none"><path d="M163.816 222.91c38.745 0 70.269-31.514 70.269-70.259 0-38.745-31.523-70.274-70.269-70.274-38.743 0-70.264 31.524-70.264 70.274 0 38.745 31.516 70.259 70.264 70.259z"/><path d="M163.816 241.771c49.226 0 89.118-39.903 89.118-89.119 0-49.228-39.893-89.123-89.118-89.123-49.221 0-89.119 39.895-89.119 89.123 0 49.215 39.898 89.119 89.119 89.119zm0-164.588c41.608 0 75.469 33.862 75.469 75.469 0 41.609-33.86 75.464-75.469 75.464-41.609 0-75.464-33.854-75.464-75.464 0-41.607 33.855-75.469 75.464-75.469zm138.643 172.879l-5.2-200.026c0-4.307-3.493-7.8-7.8-7.8a7.61 7.61 0 0 0-3.214.718v-.074s-.203.13-.493.328a7.985 7.985 0 0 0-1.995 1.539c-5.708 4.685-23.907 23.78-25.431 49.592-2.311 39.372 16.813 55.317 23.328 69.921l-5.199 85.798c0 4.306 8.693 7.8 12.999 7.8 4.312.004 13.005-3.489 13.005-7.796zM13.614 128.206l13.461 6.724c1.534.769 3.225 1.33 4.992 1.747l-5.2 117.007c0 3.615 8.696 6.54 13 6.54 4.306 0 13-2.925 13-6.54l-5.2-117.606c1.831-.576 3.595-1.279 5.139-2.224l9.973-6.073c7.196-4.39 12.619-14.045 12.619-22.475V52.88c0-4.307-3.494-7.8-7.8-7.8a7.803 7.803 0 0 0-7.8 7.8v47.225h-4.332V52.88c0-4.307-3.494-7.8-7.8-7.8a7.803 7.803 0 0 0-7.8 7.8v47.225h-4.347V52.88c0-4.307-3.494-7.8-7.8-7.8a7.803 7.803 0 0 0-7.8 7.8v47.225H15.6v-45.54c0-4.306-3.494-7.8-7.8-7.8a7.804 7.804 0 0 0-7.8 7.8v51.612c0 8.675 5.855 18.15 13.614 22.029z"/></svg>