<svg xmlns="http://www.w3.org/2000/svg" viewBox="0 0 90 90" fill="gray" opacity=".8" pointer-events="none"><path d="M8.219 26.79c8.736-7.502 15.637-13.433 34.359-2.854 8.994 5.081 16.249 6.999 22.289 6.998 10.575 0 17.426-5.883 23.352-10.975 2.113-1.814 2.385-5.035.607-7.194s-4.932-2.438-7.045-.621c-8.735 7.505-15.635 13.434-34.363 2.853-24.739-13.975-36.326-4.02-45.637 3.977-2.112 1.815-2.385 5.036-.607 7.195a4.928 4.928 0 0 0 7.045.621zm73.562 10.888c-8.735 7.503-15.635 13.433-34.363 2.853-24.739-13.976-36.326-4.021-45.637 3.977-2.112 1.816-2.385 5.037-.607 7.193a4.928 4.928 0 0 0 7.045.622c8.736-7.503 15.637-13.433 34.359-2.855 8.994 5.081 16.249 7 22.289 7 10.575 0 17.426-5.884 23.352-10.975 2.113-1.816 2.385-5.037.607-7.194a4.925 4.925 0 0 0-7.045-.621zm0 25.531c-8.735 7.504-15.635 13.433-34.363 2.854-24.739-13.976-36.326-4.021-45.637 3.977-2.112 1.815-2.385 5.037-.607 7.196a4.93 4.93 0 0 0 7.045.62C16.955 70.351 23.855 64.424 42.578 75c8.994 5.083 16.249 7 22.289 7 10.575 0 17.426-5.884 23.352-10.974 2.113-1.815 2.385-5.038.607-7.196a4.93 4.93 0 0 0-7.045-.621z"/></svg>