<svg xmlns="http://www.w3.org/2000/svg" viewBox="0 0 28 28" fill="gray" opacity=".8" pointer-events="none"><path d="M6 18V8s.005-.45.239-1H2S0 7 0 9v7c0 2 2 2 2 2v10h6v-8s-2 0-2-2zM6 6a2.97 2.97 0 0 0 1.427-.376c.059-.036.125-.068.188-.103A2.99 2.99 0 0 0 9 3a3 3 0 1 0-3 3zm20 1h-4.238c.233.55.238 1 .238 1v10c0 2-2 2-2 2v8h6V18s2 0 2-2V9s0-2-2-2zm-5.62-1.481c.065.035.134.068.194.105C21 5.856 21.48 6 22 6a3 3 0 1 0-3-3c0 1.059.552 1.985 1.38 2.519z"/><circle cx="14" cy="3" r="3"/><path d="M20 9s0-2-2-2h-8S8 7 8 9v7c0 2 2 2 2 2v10h8V18s2 0 2-2V9z"/></svg>