<svg xmlns="http://www.w3.org/2000/svg" width="514.8" height="514.8" fill="gray" opacity=".8" pointer-events="none"><path d="M405.962 47.612c-7.037 0-13.674 1.597-19.688 4.312-12.021-23.963-36.749-40.459-65.389-40.459-18.628 0-35.582 7.019-48.501 18.484C250.658 11.398 221.961 0 190.396 0 123.573 0 69.344 50.614 67.967 113.517c-25.054 11.628-42.458 36.93-42.458 66.354 0 34.004 23.228 62.52 54.669 70.724l338.579 2.324c39.178-1.405 70.533-33.526 70.533-73.048 0-28.219-15.988-52.661-39.388-64.872 2.61-5.929 4.121-12.441 4.121-19.335.001-26.537-21.515-48.052-48.061-48.052zM141.818 372.364c8.501-16.438 9.524-91.36 9.524-91.36s-60.55 44.141-69.051 60.578c-8.501 16.438-2.065 36.653 14.373 45.154 16.438 8.501 36.653 2.066 45.154-14.372zm124.312 0c8.501-16.438 9.524-91.36 9.524-91.36s-60.55 44.141-69.051 60.578c-8.501 16.438-2.065 36.653 14.372 45.154 16.439 8.501 36.654 2.066 45.155-14.372zm88.731 14.372c16.438 8.501 36.653 2.065 45.154-14.372 8.501-16.438 9.524-91.36 9.524-91.36s-60.55 44.141-69.051 60.578c-8.5 16.439-2.065 36.653 14.373 45.154zm-229.5 124.313c16.438 8.501 36.653 2.065 45.154-14.372 8.501-16.438 9.524-91.36 9.524-91.36s-60.549 44.141-69.051 60.578c-8.501 16.438-2.065 36.653 14.373 45.154zm124.312 0c16.438 8.501 36.653 2.065 45.154-14.372 8.501-16.438 9.524-91.36 9.524-91.36s-60.55 44.141-69.051 60.578c-8.5 16.438-2.065 36.653 14.373 45.154z"/></svg>