<svg xmlns="http://www.w3.org/2000/svg" viewBox="0 0 246.683 246.683" fill="#7a7777" pointer-events="none"><path d="M104.991.265H50.479a7.5 7.5 0 0 0-7.5 7.5v95.553a7.5 7.5 0 0 0 7.5 7.5h54.512a7.5 7.5 0 0 0 7.5-7.5V7.765a7.5 7.5 0 0 0-7.5-7.5zM89.923 85.88H65.547V25.204h24.376V85.88zm50.24-53.511a7.5 7.5 0 0 1 0-10.606l19.565-19.565A7.5 7.5 0 0 1 165.032 0c.043.002.069 0 .104 0h7.673a7.5 7.5 0 0 1 7.5 7.5v80.75h12.119a7.5 7.5 0 0 1 7.5 7.5v7.568a7.5 7.5 0 0 1-7.5 7.5h-46.807a7.5 7.5 0 0 1-7.5-7.5V95.75a7.5 7.5 0 0 1 7.5-7.5h12.119V36.1l-1.62 1.621a7.5 7.5 0 0 1-10.608 0l-5.349-5.352zm56.041 103.761h-54.512a7.5 7.5 0 0 0-7.5 7.5v95.553a7.5 7.5 0 0 0 7.5 7.5h54.512a7.5 7.5 0 0 0 7.5-7.5V143.63a7.5 7.5 0 0 0-7.5-7.5zm-15.067 85.615H156.76v-60.676h24.377v60.676zm-72.42 9.87v7.568a7.5 7.5 0 0 1-7.5 7.5H54.41a7.5 7.5 0 0 1-7.5-7.5v-7.568a7.5 7.5 0 0 1 7.5-7.5h12.119v-52.151l-1.621 1.621a7.497 7.497 0 0 1-10.607 0l-5.351-5.352a7.5 7.5 0 0 1 0-10.606l19.565-19.565a7.499 7.499 0 0 1 5.303-2.197h7.777a7.5 7.5 0 0 1 7.5 7.5v80.75h12.119a7.5 7.5 0 0 1 7.503 7.5z"/></svg>