<svg xmlns="http://www.w3.org/2000/svg" width="29.237" height="29.237" fill="#7a7777" pointer-events="none"><path d="M7.685 24.819h.595v-2.131h3.688v2.131h.596v-2.131h3.862v2.131h.597v-2.131h4.109v2.131h.595v-2.131h3.417v-.594h-3.417v-3.861h3.417v-.596h-3.417v-3.519h3.417v-.594h-3.417v-2.377h-.595v2.377h-4.109v-2.377h-.597v2.377h-3.862v-2.377h-.596v2.377H8.279v-2.377h-.594v2.377H3.747v.594h3.938v3.519H3.747v.596h3.938v3.861H3.747v.594h3.938v2.131zm4.878-2.725v-3.861h3.862v3.861h-3.862zm8.569 0h-4.109v-3.861h4.109v3.861zm0-7.976v3.519h-4.109v-3.519h4.109zm-4.706 0v3.519h-3.862v-3.519h3.862zm-8.147 0h3.688v3.519H8.279v-3.519zm0 4.115h3.688v3.861H8.279v-3.861z"/><path d="M29.207 2.504l-4.129.004-.603.002v2.448a1.19 1.19 0 0 1-1.188 1.187h-1.388a1.189 1.189 0 0 1-1.188-1.187V2.514l-1.583.002v2.442c0 .653-.535 1.187-1.191 1.187h-1.388a1.19 1.19 0 0 1-1.188-1.187V2.517l-1.682.004v2.438a1.19 1.19 0 0 1-1.189 1.187h-1.389a1.19 1.19 0 0 1-1.188-1.187V2.525H8.181v2.434a1.19 1.19 0 0 1-1.188 1.187H5.605a1.19 1.19 0 0 1-1.189-1.187V2.53L0 2.534v26.153h27.15l2.087-.006-.03-26.177zM27.15 26.606H2.09V9.897h25.06v16.709z"/><path d="M5.605 5.303h1.388a.297.297 0 0 0 .296-.297V.846a.296.296 0 0 0-.296-.297H5.605a.297.297 0 0 0-.298.297v4.16c0 .164.133.297.298.297zm5.496 0h1.389a.297.297 0 0 0 .297-.297V.846a.298.298 0 0 0-.298-.297H11.1a.296.296 0 0 0-.296.297v4.16a.298.298 0 0 0 .297.297zm5.448 0h1.388a.297.297 0 0 0 .299-.297V.846a.297.297 0 0 0-.299-.297h-1.388a.296.296 0 0 0-.297.297v4.16c0 .164.133.297.297.297zm5.35 0h1.388a.296.296 0 0 0 .296-.297V.846a.296.296 0 0 0-.296-.297h-1.388a.296.296 0 0 0-.297.297v4.16a.298.298 0 0 0 .297.297z"/></svg>