<svg xmlns="http://www.w3.org/2000/svg" width="533.333" height="533.333" preserveAspectRatio="xMaxYmax" fill="#7a7777" pointer-events="none"><path d="M158.333 300c0 59.831 48.502 108.333 108.333 108.333S375 359.831 375 300s-48.502-108.333-108.333-108.333S158.333 240.169 158.333 300zM500 116.667H383.333C375 83.333 366.667 50 333.333 50H200c-33.333 0-41.667 33.333-50 66.667H33.333C15 116.667 0 131.667 0 150v300c0 18.333 15 33.333 33.333 33.333H500c18.333 0 33.334-15 33.334-33.333V150c-.001-18.333-15.001-33.333-33.334-33.333zm-233.333 331.25c-81.692 0-147.917-66.224-147.917-147.917 0-81.692 66.224-147.917 147.917-147.917S414.584 218.307 414.584 300c-.001 81.693-66.223 147.917-147.917 147.917zM500 216.667h-66.666v-33.333H500v33.333z"/></svg>