<svg xmlns="http://www.w3.org/2000/svg" width="70.018" height="70.018" fill="#7a7777" pointer-events="none"><path d="M54.913 56.972l6.409 6.41c-4.167.132-8.034-.301-11.528-1.293l5.119-5.117zm-2.056-2.057l-6.002-5.996-7.577 7.58c2.174 1.896 4.681 3.421 7.454 4.541l6.125-6.125zm-8.056-8.054l-5.997-5.999-6.287 6.288a25.96 25.96 0 0 0 4.688 7.312l7.596-7.601zm-7.582 11.692l-5.671 5.671a22.812 22.812 0 0 0 7.548 4.452l5.42-5.422a29.016 29.016 0 0 1-7.297-4.701zm-5.802-14.426l5.327-5.323-6.787-6.788c-.143 4.406.348 8.469 1.46 12.111zm23.035-6.918a26.002 26.002 0 0 0-7.312-4.688l-6.286 6.286 5.997 5.997 7.601-7.595zm-15.655-.454l5.324-5.327c-3.753-1.144-7.933-1.639-12.216-1.565l6.892 6.892zm-8.473 12.587l-5.279 5.281a22.82 22.82 0 0 0 4.453 7.543l5.655-5.652a28.543 28.543 0 0 1-4.829-7.172zm-3.256-14.487a23.108 23.108 0 0 0-2.913 16.543l4.961-4.962c-1.245-3.494-1.932-7.384-2.048-11.581zm29.895 20.064l6.408 6.41c.135-4.168-.299-8.034-1.294-11.526l-5.114 5.116zm12.594-12.588l-5.152 5.152c1.214 3.627 1.848 7.64 1.894 11.953 3.274-5.053 4.444-11.152 3.258-17.105zM34.848 27.077c4.198.122 8.084.807 11.582 2.046l4.961-4.961a23.1 23.1 0 0 0-16.543 2.915zm7.473 42.489c5.956 1.187 12.053.019 17.105-3.262-4.315-.048-8.326-.682-11.953-1.891l-5.152 5.153zm14.186-34.409l5.65-5.653a22.836 22.836 0 0 0-7.543-4.453l-5.281 5.279a28.817 28.817 0 0 1 7.174 4.827zm4.523 11.585c-1.117-2.773-2.646-5.285-4.541-7.454l-7.578 7.577 5.997 6 6.122-6.123zm2.213-2.212l5.422-5.423a22.836 22.836 0 0 0-4.452-7.545l-5.669 5.67a28.711 28.711 0 0 1 4.699 7.298zm-50.557-9.897a2.854 2.854 0 0 1 .009-4.039l17.899-17.898a2.847 2.847 0 0 1 4.036-.008l3.619 3.595a2.595 2.595 0 0 0 3.613.051c.078-.051.153-.109.23-.161 2.872-2.434 7.628-6.479 7.749-6.604a2.573 2.573 0 0 0 0-3.653c-.109-.112-.399-.334-.399-.334C46.582 3.254 41.708-.04 37.035 0 31.396.057 22.151 6.503 14.33 14.323 6.505 22.148.063 31.385.01 37.022c-.049 4.684 3.251 9.556 5.58 12.412 0 0 .218.294.327.405a2.585 2.585 0 0 0 3.662-.007c.118-.116 4.167-4.872 6.599-7.741.051-.078.107-.148.161-.23a2.602 2.602 0 0 0-.049-3.62l-3.604-3.608z"/></svg>