<svg xmlns="http://www.w3.org/2000/svg" width="27" height="27" fill="#7a7777" pointer-events="none"><path d="M24.844.616H2.146A2.145 2.145 0 0 0 0 2.761v21.467c0 1.184.96 2.145 2.146 2.145h22.698a2.148 2.148 0 0 0 2.146-2.145V2.761A2.149 2.149 0 0 0 24.844.616zM6.168 8.78a2.78 2.78 0 0 1-2.779-2.779A2.779 2.779 0 1 1 6.168 8.78zm14.781 7.492a2.776 2.776 0 1 1 0-5.554 2.778 2.778 0 0 1 0 5.554zm-14.741 0a2.776 2.776 0 1 1 0-5.554 2.777 2.777 0 0 1 0 5.554zm14.957 7.348c-1.532 0-2.778-1.244-2.778-2.777s1.246-2.777 2.778-2.777a2.778 2.778 0 0 1 0 5.554zm-.159-14.792a2.777 2.777 0 0 1-2.777-2.775 2.778 2.778 0 0 1 5.554 0 2.778 2.778 0 0 1-2.777 2.775zM6.235 23.557a2.778 2.778 0 1 1 .002-5.556 2.778 2.778 0 0 1-.002 5.556z"/></svg>