<svg xmlns="http://www.w3.org/2000/svg" width="525.153" height="525.153" fill="#7a7777" pointer-events="none"><path d="M0 140.621v243.911h525.153V140.621H0zm375.922 34.441h45.929v45.907h-45.929v-45.907zm11.487 68.86v45.907H341.48v-45.907h45.929zm-80.37-68.86h45.95v45.907h-45.95v-45.907zm11.51 68.86v45.907H272.62v-45.907h45.929zm-80.349-68.86h45.886v45.907H238.2v-45.907zm11.444 68.86v45.907h-45.907v-45.907h45.907zm-80.348-68.86h45.929v45.907h-45.929v-45.907zm11.51 68.86v45.907h-45.93v-45.907h45.93zm-80.349-68.86h45.907v45.907h-45.907v-45.907zm-68.904 45.907v-45.907h45.929v45.907H31.553zm34.463 68.86v-45.907h45.929v45.907H66.016zm367.3 71.749H88.948v-45.907h344.3v45.907h.068zm22.976-71.749h-45.929v-45.907h45.929v45.907zm34.419-68.86h-45.929v-45.907h45.929v45.907z"/></svg>