<?xml version="1.0" encoding="iso-8859-1"?>
<!-- Generator: Adobe Illustrator 17.1.0, SVG Export Plug-In . SVG Version: 6.00 Build 0)  -->
<!DOCTYPE svg PUBLIC "-//W3C//DTD SVG 1.1//EN" "http://www.w3.org/Graphics/SVG/1.1/DTD/svg11.dtd">
<svg version="1.1" id="Capa_1" xmlns="http://www.w3.org/2000/svg" xmlns:xlink="http://www.w3.org/1999/xlink" x="0px" y="0px"
	 width="317px" height="317px" viewBox="0 0 317 317" style="enable-background:new 0 0 317 317;" xml:space="preserve">

		<style type="text/css" media="screen">
			 <![CDATA[
			 svg {
				 fill: #7A7777;
				 pointer-events: none;
			 }

			 ]]>
		 </style>
<path d="M302,13H15C6.729,13,0,19.729,0,28v261c0,8.272,6.729,15,15,15h287c8.271,0,15-6.728,15-15V28C317,19.729,310.271,13,302,13
	z M77,56h102c8.284,0,15,6.716,15,15s-6.716,15-15,15H77c-8.284,0-15-6.716-15-15S68.716,56,77,56z M179,262H77
	c-8.284,0-15-6.716-15-15s6.716-15,15-15h102c8.284,0,15,6.716,15,15S187.284,262,179,262z M209,203H77c-8.284,0-15-6.716-15-15
	s6.716-15,15-15h132c8.284,0,15,6.716,15,15S217.284,203,209,203z M239,145H77c-8.284,0-15-6.716-15-15s6.716-15,15-15h162
	c8.284,0,15,6.716,15,15S247.284,145,239,145z"/>
<g>
</g>
<g>
</g>
<g>
</g>
<g>
</g>
<g>
</g>
<g>
</g>
<g>
</g>
<g>
</g>
<g>
</g>
<g>
</g>
<g>
</g>
<g>
</g>
<g>
</g>
<g>
</g>
<g>
</g>
</svg>
