<svg xmlns="http://www.w3.org/2000/svg" width="317" height="317" fill="#7a7777" pointer-events="none"><path d="M302 13H15C6.729 13 0 19.729 0 28v261c0 8.272 6.729 15 15 15h287c8.271 0 15-6.728 15-15V28c0-8.271-6.729-15-15-15zM77 56h102c8.284 0 15 6.716 15 15s-6.716 15-15 15H77c-8.284 0-15-6.716-15-15s6.716-15 15-15zm102 206H77c-8.284 0-15-6.716-15-15s6.716-15 15-15h102c8.284 0 15 6.716 15 15s-6.716 15-15 15zm30-59H77c-8.284 0-15-6.716-15-15s6.716-15 15-15h132c8.284 0 15 6.716 15 15s-6.716 15-15 15zm30-58H77c-8.284 0-15-6.716-15-15s6.716-15 15-15h162c8.284 0 15 6.716 15 15s-6.716 15-15 15z"/></svg>