<svg xmlns="http://www.w3.org/2000/svg" width="47" height="47" fill="#7a7777" pointer-events="none"><path d="M2.41 31.936A2.41 2.41 0 0 1 0 29.526v-12.05a2.41 2.41 0 0 1 4.82 0v12.05a2.411 2.411 0 0 1-2.41 2.41zm7.03 6.026a2.41 2.41 0 0 1-2.41-2.41V11.448a2.41 2.41 0 0 1 4.82 0v24.104a2.41 2.41 0 0 1-2.41 2.41zm7.03-3.014a2.41 2.41 0 0 1-2.41-2.41V14.462a2.41 2.41 0 0 1 4.821 0v18.076a2.412 2.412 0 0 1-2.411 2.41zm7.03 6.027a2.41 2.41 0 0 1-2.41-2.41V8.436a2.41 2.41 0 0 1 4.82 0v30.128a2.41 2.41 0 0 1-2.41 2.411zM30.529 47a2.41 2.41 0 0 1-2.41-2.41V2.41a2.41 2.41 0 0 1 4.82 0v42.18a2.41 2.41 0 0 1-2.41 2.41zm7.032-9.038a2.41 2.41 0 0 1-2.41-2.41V11.448a2.41 2.41 0 1 1 4.82 0v24.104a2.41 2.41 0 0 1-2.41 2.41zm7.029-9.039a2.41 2.41 0 0 1-2.41-2.409v-6.026a2.41 2.41 0 0 1 4.82 0v6.026a2.41 2.41 0 0 1-2.41 2.409z"/></svg>