<svg xmlns="http://www.w3.org/2000/svg" width="940.466" height="940.467" fill="#7a7777" pointer-events="none"><path d="M120.269 930.855c14.171 14.17 38.842 12.477 55.103-3.785l172.059-172.059 125.145 125.145c16.262 16.26 42.626 16.26 58.889 0l48.765-48.766c16.261-16.26 16.261-42.625 0-58.887L167.97 360.242c-16.261-16.261-42.626-16.261-58.888 0l-48.765 48.765c-16.261 16.261-16.261 42.626 0 58.888L185.462 593.04 13.402 765.102c-16.261 16.26-17.956 40.932-3.785 55.102l110.652 110.651zM104.553 774.85c16.864-16.865 44.207-16.865 61.071 0 16.865 16.863 16.865 44.207 0 61.07-16.864 16.863-44.207 16.863-61.071 0-16.865-16.863-16.865-44.207 0-61.07zm78.337-466.788c.087.604.189 1.206.305 1.806.141.727.31 1.45.494 2.17a37.891 37.891 0 0 0 9.959 17.479l104.327 104.327 312.982 312.982a38.061 38.061 0 0 0 9.215 6.795 37.64 37.64 0 0 0 3.378 1.568 38.165 38.165 0 0 0 5.262 1.699 38.564 38.564 0 0 0 6.993 1.028l.331.02c.58.027 1.159.043 1.739.043l.055-.002a38.299 38.299 0 0 0 2.371-.086 38.2 38.2 0 0 0 3.038-.305 37.998 37.998 0 0 0 13.878-4.878 37.907 37.907 0 0 0 5.792-4.207 36.793 36.793 0 0 0 1.783-1.674l122.313-122.312L909.42 502.199l19.898-19.898a37.859 37.859 0 0 0 9.745-16.68c3.562-12.799.32-27.095-9.744-37.16l-4.789-4.788-376.4-376.406-36.117-36.117a38.867 38.867 0 0 0-2.891-2.613 37.808 37.808 0 0 0-11.435-6.403A38.186 38.186 0 0 0 487.025.051c-.188-.01-.376-.012-.563-.018A37.542 37.542 0 0 0 485.3.005c-.069 0-.138-.005-.207-.005-.108 0-.216.009-.324.01-.545.005-1.09.021-1.634.049-.166.009-.332.015-.498.025-.671.043-1.342.102-2.011.18-.12.014-.24.034-.361.049a38.73 38.73 0 0 0-2.236.351c-.669.126-1.337.263-2 .425-.435.106-.866.229-1.299.351a37.887 37.887 0 0 0-16.557 9.711l-4.731 4.731-259.794 259.795a37.94 37.94 0 0 0-9.932 17.377 38.147 38.147 0 0 0-1.175 11.368c.058 1.217.174 2.432.349 3.64zM479.388 32.363c1.954-1.953 4.181-2.363 5.706-2.363s3.753.41 5.706 2.363l417.309 417.31c1.954 1.952 2.364 4.181 2.364 5.706 0 1.524-.41 3.752-2.364 5.705l-35.76 35.76c-22.289-2.576-45.004-2.17-66.333 4.598-17.153 5.443-30.652 15.387-44.135 27.033-14.211 12.273-29.746 25.285-48.874 28.549-16.185 2.76-34.984.664-46.476-12.539-12.03-13.824-15.919-32.877-11.342-50.598 4.674-18.094 15.435-33.299 26.217-48.233 11.19-15.497 22.867-30.812 32.259-47.503 9.07-16.121 29.632-47.116 18.218-65.91-11.97-19.703-41.84-11.31-57.961-2.262-33.237 18.693-57.012 48.939-79.784 78.753-6.471 8.472-12.824 17.068-19.581 25.316-6.124 7.476-13.219 14.29-22.527 17.516-19.011 6.59-37.264-4.955-39.798-24.721-2.48-19.355 12.443-34.246 25.229-46.51 14.409-13.819 29.678-26.718 43.984-40.645 13.527-13.168 26.93-27.273 36.038-43.971 3.133-5.744 6.147-12.423 7.196-19.151-27.065.615-54.272 1.188-79.893-9.117-16.372-6.585-31.188-17.422-40.014-33.036-7.671-13.571-10.892-28.956-11.21-44.451-.637-30.967 7.706-61.689 1.901-92.569-3.923-20.872-11.735-40.511-23.14-57.968l7.065-7.062z"/></svg>