<?xml version="1.0" encoding="iso-8859-1"?>
<!-- Generator: Adobe Illustrator 19.0.0, SVG Export Plug-In . SVG Version: 6.00 Build 0)  -->
<svg version="1.1" id="Layer_1" xmlns="http://www.w3.org/2000/svg" xmlns:xlink="http://www.w3.org/1999/xlink" x="0px" y="0px"
	 viewBox="0 0 503.607 503.607" style="enable-background:new 0 0 503.607 503.607;" xml:space="preserve">
	 <style type="text/css" media="screen">
					 <![CDATA[
					 svg {
						 fill: #7A7777;
						 pointer-events: none;
					 }
					 ]]>
				 </style>
<g>
	<g>
		<g>
			<path d="M495.213,0h-243.41H8.393C3.752,0,0,3.752,0,8.393v486.82c0,4.633,3.752,8.393,8.393,8.393h243.41
				c4.642,0,8.393-3.76,8.393-8.393V394.492h201.443c23.535,0,41.967-25.81,41.967-58.754V8.393C503.607,3.752,499.855,0,495.213,0z
				 M420.52,347.782c0.008,0.034,0.017,0.067,0.017,0.101c0.562,3.844,1.368,7.529,2.417,11.037
				c0.025,0.059,0.042,0.118,0.059,0.176c1.049,3.475,2.325,6.773,3.811,9.846c0.034,0.084,0.076,0.151,0.118,0.227
				c1.477,3.038,3.148,5.867,5.003,8.444c0.025,0.025,0.034,0.067,0.059,0.092H251.803h-33.574c-13.648,0-25.18-19.221-25.18-41.967
				s11.533-41.967,25.18-41.967h33.574h180.199c-0.025,0.025-0.034,0.059-0.059,0.084c-1.855,2.585-3.525,5.414-5.003,8.452
				c-0.042,0.076-0.084,0.143-0.118,0.218c-1.486,3.08-2.761,6.379-3.811,9.854c-0.017,0.059-0.034,0.109-0.059,0.168
				c-1.049,3.508-1.855,7.202-2.417,11.037c0,0.042-0.008,0.076-0.017,0.109c-0.554,3.878-0.848,7.907-0.848,12.045
				S419.966,343.904,420.52,347.782z M461.639,377.705c-13.648,0-25.18-19.221-25.18-41.967s11.533-41.967,25.18-41.967
				c13.648,0,25.18,19.221,25.18,41.967S475.287,377.705,461.639,377.705z M486.82,33.574c-4.633,0-8.393,3.752-8.393,8.393
				c0,4.633,3.76,8.393,8.393,8.393v33.574c-4.633,0-8.393,3.752-8.393,8.393c0,4.633,3.76,8.393,8.393,8.393v33.574
				c-4.633,0-8.393,3.752-8.393,8.393c0,4.633,3.76,8.393,8.393,8.393v33.574c-4.633,0-8.393,3.752-8.393,8.393
				c0,4.633,3.76,8.393,8.393,8.393v33.574c-4.633,0-8.393,3.752-8.393,8.393c0,4.633,3.76,8.393,8.393,8.393v36.621
				c-0.159-0.168-0.344-0.277-0.504-0.445c-1.544-1.544-3.156-2.98-4.851-4.23c-0.218-0.159-0.453-0.294-0.68-0.453
				c-1.595-1.116-3.257-2.09-4.969-2.929c-0.319-0.159-0.638-0.336-0.965-0.487c-1.847-0.831-3.752-1.469-5.708-1.947
				c-0.42-0.101-0.839-0.176-1.251-0.26c-2.048-0.411-4.121-0.688-6.253-0.688h-50.361h-50.361h-50.361h-50.361v-50.361
				c4.633,0,8.393-3.76,8.393-8.393c0-4.642-3.76-8.393-8.393-8.393v-33.574c4.633,0,8.393-3.76,8.393-8.393
				c0-4.642-3.76-8.393-8.393-8.393v-33.574c4.633,0,8.393-3.76,8.393-8.393c0-4.642-3.76-8.393-8.393-8.393V75.541
				c4.633,0,8.393-3.76,8.393-8.393c0-4.642-3.76-8.393-8.393-8.393V25.18c4.633,0,8.393-3.76,8.393-8.393h33.574
				c0,4.633,3.76,8.393,8.393,8.393s8.393-3.76,8.393-8.393h33.574c0,4.633,3.76,8.393,8.393,8.393s8.393-3.76,8.393-8.393h33.574
				c0,4.633,3.76,8.393,8.393,8.393s8.393-3.76,8.393-8.393h33.574c0,4.633,3.76,8.393,8.393,8.393s8.393-3.76,8.393-8.393h16.787
				V33.574z"/>
			<circle cx="285.377" cy="41.965" r="8.393"/>
			<circle cx="335.738" cy="41.965" r="8.393"/>
			<circle cx="386.098" cy="41.965" r="8.393"/>
			<circle cx="436.459" cy="41.965" r="8.393"/>
			<circle cx="310.557" cy="67.145" r="8.393"/>
			<circle cx="285.377" cy="92.325" r="8.393"/>
			<circle cx="335.738" cy="92.325" r="8.393"/>
			<circle cx="360.918" cy="67.145" r="8.393"/>
			<circle cx="411.279" cy="67.145" r="8.393"/>
			<circle cx="461.639" cy="67.145" r="8.393"/>
			<circle cx="386.098" cy="92.325" r="8.393"/>
			<circle cx="436.459" cy="92.325" r="8.393"/>
			<circle cx="310.557" cy="117.506" r="8.393"/>
			<circle cx="285.377" cy="142.686" r="8.393"/>
			<circle cx="335.738" cy="142.686" r="8.393"/>
			<circle cx="360.918" cy="117.506" r="8.393"/>
			<circle cx="411.279" cy="117.506" r="8.393"/>
			<circle cx="461.639" cy="117.506" r="8.393"/>
			<circle cx="386.098" cy="142.686" r="8.393"/>
			<circle cx="436.459" cy="142.686" r="8.393"/>
			<circle cx="310.557" cy="167.866" r="8.393"/>
			<circle cx="285.377" cy="193.047" r="8.393"/>
			<circle cx="335.738" cy="193.047" r="8.393"/>
			<circle cx="360.918" cy="167.866" r="8.393"/>
			<circle cx="411.279" cy="167.866" r="8.393"/>
			<circle cx="461.639" cy="167.866" r="8.393"/>
			<circle cx="386.098" cy="193.047" r="8.393"/>
			<circle cx="436.459" cy="193.047" r="8.393"/>
			<circle cx="310.557" cy="218.227" r="8.393"/>
			<circle cx="285.377" cy="243.407" r="8.393"/>
			<circle cx="335.738" cy="243.407" r="8.393"/>
			<circle cx="360.918" cy="218.227" r="8.393"/>
			<circle cx="411.279" cy="218.227" r="8.393"/>
			<circle cx="461.639" cy="218.227" r="8.393"/>
			<circle cx="310.557" cy="268.588" r="8.393"/>
			<circle cx="360.918" cy="268.588" r="8.393"/>
			<circle cx="411.279" cy="268.588" r="8.393"/>
			<circle cx="461.639" cy="268.588" r="8.393"/>
			<circle cx="386.098" cy="243.407" r="8.393"/>
			<circle cx="436.459" cy="243.407" r="8.393"/>
		</g>
	</g>
</g>
<g>
</g>
<g>
</g>
<g>
</g>
<g>
</g>
<g>
</g>
<g>
</g>
<g>
</g>
<g>
</g>
<g>
</g>
<g>
</g>
<g>
</g>
<g>
</g>
<g>
</g>
<g>
</g>
<g>
</g>
</svg>
