<svg xmlns="http://www.w3.org/2000/svg" viewBox="0 0 503.607 503.607" fill="#7a7777" pointer-events="none"><path d="M495.213 0H8.393A8.386 8.386 0 0 0 0 8.393v486.82a8.39 8.39 0 0 0 8.393 8.393h243.41a8.39 8.39 0 0 0 8.393-8.393V394.492h201.443c23.535 0 41.967-25.81 41.967-58.754V8.393A8.384 8.384 0 0 0 495.213 0zM420.52 347.782c.008.034.017.067.017.101a77.792 77.792 0 0 0 2.417 11.037c.025.059.042.118.059.176a67.32 67.32 0 0 0 3.811 9.846c.034.084.076.151.118.227 1.477 3.038 3.148 5.867 5.003 8.444.025.025.034.067.059.092H218.229c-13.648 0-25.18-19.221-25.18-41.967s11.533-41.967 25.18-41.967h213.773c-.025.025-.034.059-.059.084-1.855 2.585-3.525 5.414-5.003 8.452-.042.076-.084.143-.118.218a67.847 67.847 0 0 0-3.811 9.854 1.401 1.401 0 0 1-.059.168c-1.049 3.508-1.855 7.202-2.417 11.037a.396.396 0 0 1-.017.109c-.554 3.878-.848 7.907-.848 12.045s.296 8.166.85 12.044zm41.119 29.923c-13.648 0-25.18-19.221-25.18-41.967s11.533-41.967 25.18-41.967c13.648 0 25.18 19.221 25.18 41.967s-11.532 41.967-25.18 41.967zM486.82 33.574a8.39 8.39 0 0 0-8.393 8.393 8.396 8.396 0 0 0 8.393 8.393v33.574a8.39 8.39 0 0 0-8.393 8.393 8.396 8.396 0 0 0 8.393 8.393v33.574a8.39 8.39 0 0 0-8.393 8.393 8.396 8.396 0 0 0 8.393 8.393v33.574a8.39 8.39 0 0 0-8.393 8.393 8.396 8.396 0 0 0 8.393 8.393v33.574a8.39 8.39 0 0 0-8.393 8.393 8.396 8.396 0 0 0 8.393 8.393v36.621c-.159-.168-.344-.277-.504-.445-1.544-1.544-3.156-2.98-4.851-4.23-.218-.159-.453-.294-.68-.453a37.265 37.265 0 0 0-4.969-2.929c-.319-.159-.638-.336-.965-.487a32.9 32.9 0 0 0-5.708-1.947c-.42-.101-.839-.176-1.251-.26-2.048-.411-4.121-.688-6.253-.688H260.195v-50.361a8.396 8.396 0 0 0 8.393-8.393 8.39 8.39 0 0 0-8.393-8.393v-33.574a8.396 8.396 0 0 0 8.393-8.393 8.39 8.39 0 0 0-8.393-8.393v-33.574a8.396 8.396 0 0 0 8.393-8.393 8.39 8.39 0 0 0-8.393-8.393V75.541a8.396 8.396 0 0 0 8.393-8.393 8.39 8.39 0 0 0-8.393-8.393V25.18a8.396 8.396 0 0 0 8.393-8.393h33.574c0 4.633 3.76 8.393 8.393 8.393s8.393-3.76 8.393-8.393h33.574c0 4.633 3.76 8.393 8.393 8.393s8.393-3.76 8.393-8.393h33.574c0 4.633 3.76 8.393 8.393 8.393s8.393-3.76 8.393-8.393h33.574c0 4.633 3.76 8.393 8.393 8.393s8.393-3.76 8.393-8.393h16.787v16.787z"/><circle cx="285.377" cy="41.965" r="8.393"/><circle cx="335.738" cy="41.965" r="8.393"/><circle cx="386.098" cy="41.965" r="8.393"/><circle cx="436.459" cy="41.965" r="8.393"/><circle cx="310.557" cy="67.145" r="8.393"/><circle cx="285.377" cy="92.325" r="8.393"/><circle cx="335.738" cy="92.325" r="8.393"/><circle cx="360.918" cy="67.145" r="8.393"/><circle cx="411.279" cy="67.145" r="8.393"/><circle cx="461.639" cy="67.145" r="8.393"/><circle cx="386.098" cy="92.325" r="8.393"/><circle cx="436.459" cy="92.325" r="8.393"/><circle cx="310.557" cy="117.506" r="8.393"/><circle cx="285.377" cy="142.686" r="8.393"/><circle cx="335.738" cy="142.686" r="8.393"/><circle cx="360.918" cy="117.506" r="8.393"/><circle cx="411.279" cy="117.506" r="8.393"/><circle cx="461.639" cy="117.506" r="8.393"/><circle cx="386.098" cy="142.686" r="8.393"/><circle cx="436.459" cy="142.686" r="8.393"/><circle cx="310.557" cy="167.866" r="8.393"/><circle cx="285.377" cy="193.047" r="8.393"/><circle cx="335.738" cy="193.047" r="8.393"/><circle cx="360.918" cy="167.866" r="8.393"/><circle cx="411.279" cy="167.866" r="8.393"/><circle cx="461.639" cy="167.866" r="8.393"/><circle cx="386.098" cy="193.047" r="8.393"/><circle cx="436.459" cy="193.047" r="8.393"/><circle cx="310.557" cy="218.227" r="8.393"/><circle cx="285.377" cy="243.407" r="8.393"/><circle cx="335.738" cy="243.407" r="8.393"/><circle cx="360.918" cy="218.227" r="8.393"/><circle cx="411.279" cy="218.227" r="8.393"/><circle cx="461.639" cy="218.227" r="8.393"/><circle cx="310.557" cy="268.588" r="8.393"/><circle cx="360.918" cy="268.588" r="8.393"/><circle cx="411.279" cy="268.588" r="8.393"/><circle cx="461.639" cy="268.588" r="8.393"/><circle cx="386.098" cy="243.407" r="8.393"/><circle cx="436.459" cy="243.407" r="8.393"/></svg>