<svg xmlns="http://www.w3.org/2000/svg" width="100" height="100" fill="#fff"><path d="M31.711 69.67c-6.763 0-12.263-5.5-12.263-12.263 0-6.186 9.886-23.531 11.011-25.492.517-.887 1.981-.887 2.502 0 1.128 1.96 11.012 19.306 11.012 25.492.002 6.764-5.497 12.264-12.262 12.264zm0-34.092c-3.44 6.22-9.381 17.797-9.381 21.83 0 5.169 4.208 9.378 9.381 9.378s9.38-4.207 9.38-9.379c0-4.035-5.94-15.61-9.38-21.828z"/><path d="M31.711 63.9a1.442 1.442 0 1 1 0-2.886 3.602 3.602 0 0 0 3.605-3.595 1.444 1.444 0 1 1 2.889.001c0 3.574-2.914 6.48-6.494 6.48z"/></svg>